<svg width="55" height="53" viewBox="0 0 55 53" fill="none" xmlns="http://www.w3.org/2000/svg">
<path d="M27.245 46.378C23.9547 42.9002 17.8397 42.163 15.3547 41.8669C7.05033 40.8652 5.52786 35.869 5.52786 26.3808V23.659C5.52786 10.4662 4.93649 5.50781 4.93649 5.50781H0.0922852C0.0922852 5.50781 1.16179 7.41681 1.16179 23.659C1.16179 34.3696 1.16179 44.5572 14.8325 46.2016C21.9101 47.0521 24.8669 48.7406 24.2567 52.0104H30.2333C29.6231 48.7343 32.5799 47.0521 39.6575 46.2016C53.3282 44.5509 53.3282 34.3633 53.3282 23.659C53.3282 7.41681 54.3977 5.50781 54.3977 5.50781H49.5535C49.5535 5.50781 48.9621 10.4662 48.9621 23.659V26.3808C48.9621 35.8627 47.4397 40.8652 39.1353 41.8669C36.6503 42.163 30.5353 42.9002 27.245 46.378Z" fill="white"/>
<path d="M3.81104 0.296875C3.81104 0.296875 4.93716 4.03296 4.93716 5.53874H49.5542C49.5542 4.03296 50.6803 0.296875 50.6803 0.296875H3.81104Z" fill="white"/>
<path d="M20.7911 21.9085C20.8289 18.9096 20.9673 15.9106 21.2064 12.918H14.2231C14.8019 20.0625 14.8019 27.2449 14.2231 34.3957H21.2064C20.961 31.3905 20.8289 28.3726 20.7848 25.3611H33.7006C33.6629 28.3789 33.5245 31.3905 33.2791 34.3957H40.2623C39.6835 27.2512 39.6835 20.0688 40.2623 12.918H33.2791C33.5245 15.9106 33.6566 18.9096 33.6943 21.9085H20.7911Z" fill="white"/>
</svg>
